<svg width="20" height="20" viewBox="0 0 20 20" fill="none" xmlns="http://www.w3.org/2000/svg">
<path d="M9.86861 5.28152C7.24585 5.28152 5.15584 7.41251 5.15584 9.99429C5.15584 12.617 7.24585 14.707 9.86861 14.707C12.4504 14.707 14.5814 12.617 14.5814 9.99429C14.5814 7.41251 12.4504 5.28152 9.86861 5.28152ZM9.86861 13.0678C8.1884 13.0678 6.79507 11.7155 6.79507 9.99429C6.79507 8.31408 8.14742 6.96173 9.86861 6.96173C11.5488 6.96173 12.9012 8.31408 12.9012 9.99429C12.9012 11.7155 11.5488 13.0678 9.86861 13.0678ZM15.8518 5.1176C15.8518 4.50289 15.36 4.01113 14.7453 4.01113C14.1306 4.01113 13.6388 4.50289 13.6388 5.1176C13.6388 5.73231 14.1306 6.22408 14.7453 6.22408C15.36 6.22408 15.8518 5.73231 15.8518 5.1176ZM18.9663 6.22408C18.8843 4.74878 18.5565 3.4374 17.491 2.37191C16.4255 1.30641 15.1141 0.978568 13.6388 0.896607C12.1225 0.814646 7.5737 0.814646 6.05742 0.896607C4.58212 0.978568 3.31172 1.30641 2.20525 2.37191C1.13975 3.4374 0.811907 4.74878 0.729946 6.22408C0.647985 7.74036 0.647985 12.2892 0.729946 13.8055C0.811907 15.2808 1.13975 16.5512 2.20525 17.6576C3.31172 18.7231 4.58212 19.051 6.05742 19.1329C7.5737 19.2149 12.1225 19.2149 13.6388 19.1329C15.1141 19.051 16.4255 18.7231 17.491 17.6576C18.5565 16.5512 18.8843 15.2808 18.9663 13.8055C19.0482 12.2892 19.0482 7.74036 18.9663 6.22408ZM16.9992 15.4037C16.7124 16.2233 16.0567 16.838 15.278 17.1659C14.0486 17.6576 11.18 17.5347 9.86861 17.5347C8.51625 17.5347 5.64761 17.6576 4.45918 17.1659C3.63956 16.838 3.02486 16.2233 2.69701 15.4037C2.20525 14.2153 2.32819 11.3466 2.32819 9.99429C2.32819 8.68291 2.20525 5.81427 2.69701 4.58486C3.02486 3.80622 3.63956 3.19152 4.45918 2.86367C5.64761 2.37191 8.51625 2.49485 9.86861 2.49485C11.18 2.49485 14.0486 2.37191 15.278 2.86367C16.0567 3.15054 16.6714 3.80622 16.9992 4.58486C17.491 5.81427 17.368 8.68291 17.368 9.99429C17.368 11.3466 17.491 14.2153 16.9992 15.4037Z" fill="#5A7184"/>
</svg>
