<svg width="19" height="20" viewBox="0 0 19 20" fill="none" xmlns="http://www.w3.org/2000/svg">
<path d="M17.6829 0.814646H1.90541C1.20874 0.814646 0.635011 1.42935 0.635011 2.167V17.8625C0.635011 18.6002 1.20874 19.1739 1.90541 19.1739H17.6829C18.3796 19.1739 18.9943 18.6002 18.9943 17.8625V2.167C18.9943 1.42935 18.3796 0.814646 17.6829 0.814646ZM6.16738 16.5512H3.46267V7.82232H6.16738V16.5512ZM4.81503 6.5929C3.91345 6.5929 3.21678 5.89623 3.21678 5.03564C3.21678 4.17505 3.91345 3.4374 4.81503 3.4374C5.67562 3.4374 6.37229 4.17505 6.37229 5.03564C6.37229 5.89623 5.67562 6.5929 4.81503 6.5929ZM16.3715 16.5512H13.6258V12.2892C13.6258 11.3057 13.6258 9.99429 12.2325 9.99429C10.7982 9.99429 10.5933 11.1008 10.5933 12.2482V16.5512H7.88857V7.82232H10.4703V9.01075H10.5113C10.8801 8.31408 11.7817 7.57643 13.0931 7.57643C15.8388 7.57643 16.3715 9.42056 16.3715 11.7564V16.5512Z" fill="#5A7184"/>
</svg>
