<svg width="38" height="38" viewBox="0 0 38 38" fill="none" xmlns="http://www.w3.org/2000/svg">
<g opacity="0.5">
<path d="M4.86222 29.8127H33.1342C33.8049 29.8127 34.3502 29.2674 34.3502 28.5967V9.40667C34.3502 8.73597 33.8049 8.19067 33.1342 8.19067H4.86222C4.19152 8.19067 3.64622 8.73597 3.64622 9.40667V28.5967C3.64622 29.2674 4.19152 29.8127 4.86222 29.8127ZM31.9182 27.3807H6.07822V10.6227H31.9182V27.3807Z" fill="#485257"/>
<path d="M18.9698 22.954C19.2548 22.954 19.5398 22.8552 19.7678 22.6557L33.9342 10.3228C34.4415 9.88196 34.4947 9.11436 34.0539 8.60706C33.6131 8.09976 32.8455 8.04656 32.3382 8.48736L18.9717 20.123L5.66407 8.48926C5.15867 8.04656 4.39107 8.09976 3.94837 8.60516C3.50567 9.11056 3.55697 9.87816 4.06427 10.3209L18.1699 22.6519C18.3998 22.8533 18.6848 22.954 18.9698 22.954Z" fill="#485257"/>
</g>
</svg>
