<svg width="22" height="18" viewBox="0 0 22 18" fill="none" xmlns="http://www.w3.org/2000/svg">
<path d="M19.2412 4.73231C20.0608 4.1176 20.7985 3.37995 21.3722 2.51936C20.6346 2.84721 19.774 3.09309 18.9134 3.17505C19.8149 2.6423 20.4706 1.82269 20.7985 0.798179C19.9789 1.28994 19.0363 1.65877 18.0938 1.86367C17.2742 1.00308 16.1677 0.511315 14.9383 0.511315C12.5614 0.511315 10.6353 2.4374 10.6353 4.81427C10.6353 5.14212 10.6763 5.46996 10.7582 5.7978C7.19294 5.5929 3.99646 3.87172 1.86547 1.28994C1.49665 1.90465 1.29174 2.6423 1.29174 3.46191C1.29174 4.93721 2.02939 6.24859 3.21783 7.02722C2.52116 6.98624 1.82449 6.82232 1.25076 6.49447V6.53545C1.25076 8.62546 2.72606 10.3466 4.69313 10.7564C4.36528 10.8384 3.95548 10.9204 3.58665 10.9204C3.29979 10.9204 3.05391 10.8794 2.76704 10.8384C3.29979 12.5596 4.89803 13.789 6.78314 13.83C5.30784 14.9774 3.46371 15.6741 1.45567 15.6741C1.08684 15.6741 0.758998 15.6331 0.431153 15.5922C2.31626 16.8216 4.57019 17.5182 7.02902 17.5182C14.9383 17.5182 19.2412 11.0023 19.2412 5.30604C19.2412 5.10113 19.2412 4.93721 19.2412 4.73231Z" fill="#5A7184"/>
</svg>
