<svg width="749" height="409" viewBox="0 0 749 409" fill="none" xmlns="http://www.w3.org/2000/svg">
<path d="M684.778 292.757L630.442 288L611 347.622L695.048 356.025L684.778 292.757Z" fill="#4DD3CD" stroke="#485257" stroke-width="0.826956" stroke-linecap="round" stroke-linejoin="round"/>
<path d="M690.274 295.591L642.188 290.022C635.595 315.948 631.899 330.483 625.306 356.409L695.597 362.724L690.274 295.591Z" fill="#485257"/>
<path d="M633 289.546L667.073 254L673 293" stroke="#485257" stroke-width="0.826956" stroke-linecap="round" stroke-linejoin="round"/>
<path d="M666 246L645 294" stroke="#485257" stroke-width="0.826956" stroke-linecap="round" stroke-linejoin="round"/>
<path d="M668.395 250.397L676.828 294.292" stroke="#485257" stroke-width="0.826956" stroke-linecap="round" stroke-linejoin="round"/>
<path d="M577.177 2.0907C583.94 -4.95184 644.164 7.88835 645.805 9.91574C650.38 15.6067 642.963 53.3092 638.253 57.4849C635.376 60.0316 581.73 62.6707 578.384 60.5438C572.537 56.8304 570.484 9.0621 577.177 2.0907Z" fill="#95F4E9"/>
<path d="M618.808 53.6079L616.535 78.705L632.434 54.177L618.808 53.6079Z" fill="#95F4E9"/>
<path d="M381.605 6.55607C376.49 1.32752 330.986 10.8243 329.743 12.3608C326.283 16.5508 331.874 44.5502 335.427 47.6518C337.601 49.5369 378.138 51.5003 380.667 49.921C385.107 47.1609 386.656 11.7206 381.605 6.55607Z" fill="#4DD3CD"/>
<path d="M348.911 42.7931V64.3048L342.148 43.4049L348.911 42.7931Z" fill="#4DD3CD"/>
<path d="M138.16 65.6284C143.843 61.9008 192.608 69.484 194.114 70.8C198.376 74.5276 196.828 102.1 193.247 105.059C191.009 106.902 141.797 109.477 138.508 107.514C132.81 104.113 132.284 69.484 138.16 65.6284Z" fill="#95F4E9"/>
<path d="M180.63 99.4469L182.513 126.273L187.557 98.5505L180.63 99.4469Z" fill="#95F4E9"/>
<path d="M689.936 147.468L686.108 185.288L668.708 235.661L674.661 239.067L695.094 192.956L705.298 153.371C705.298 153.371 706.156 141.464 701.893 139.7C697.63 137.935 691.639 139.811 689.936 147.468Z" fill="white" stroke="#626C72" stroke-linecap="round" stroke-linejoin="round"/>
<path d="M668.658 235.711C668.658 235.711 664.83 243.802 664.395 245.928C663.96 248.053 663.525 252.39 665.203 254.329C667.229 256.666 669.081 254.864 669.081 254.864C669.081 254.864 674.189 253.621 674.189 249.333C674.189 245.045 674.611 239.117 674.611 239.117L668.658 235.711Z" fill="white" stroke="#626C72" stroke-linecap="round" stroke-linejoin="round"/>
<path d="M672.834 248.401L665.663 250.265" stroke="#626C72" stroke-linecap="round" stroke-linejoin="round"/>
<path d="M671.118 243.566L669.08 246.773C669.08 246.773 673.828 254.889 671.28 252.763C668.732 250.638 663.972 248.053 664.394 245.928C665.114 243.697 666.064 241.548 667.228 239.514" fill="white"/>
<path d="M671.118 243.566L669.08 246.773C669.08 246.773 673.828 254.889 671.28 252.763C668.732 250.638 663.972 248.053 664.394 245.928C665.114 243.697 666.064 241.548 667.228 239.514" stroke="#626C72" stroke-linecap="round" stroke-linejoin="round"/>
<path d="M710.282 102.016C710.282 102.016 714.657 97.293 724.749 100.326C734.841 103.358 737.178 119.516 736.867 127.582C736.557 135.648 728.789 144.746 731.138 148.785C733.487 152.824 742.249 162.245 741.578 172.4C740.907 182.554 732.492 190.57 720.374 186.867C708.256 183.163 710.282 168.335 712.693 162.916C715.105 157.498 709.996 155.173 708.319 143.391C706.641 131.609 717.404 121.852 717.404 113.438C717.404 105.024 708.704 106.378 708.704 106.378L710.282 102.016Z" fill="#626C72" stroke="#626C72" stroke-linecap="round" stroke-linejoin="round"/>
<path d="M725.444 133.958C723.853 137.239 722.002 140.744 720.162 144.522C714.022 157.05 718.82 161.574 728.154 168.509C737.488 175.445 735.35 183.971 732.951 185.288" stroke="white" stroke-width="0.5" stroke-linecap="round" stroke-linejoin="round"/>
<path d="M713.488 105.334C713.488 105.334 726.016 106.403 729.223 114.395C731.162 119.254 729.67 124.698 726.812 131.037" stroke="white" stroke-width="0.5" stroke-linecap="round" stroke-linejoin="round"/>
<path d="M722.648 182.168C721.685 182.531 720.657 182.691 719.628 182.641" stroke="white" stroke-width="0.5" stroke-linecap="round" stroke-linejoin="round"/>
<path d="M710.281 104.502C710.281 104.502 722.014 106.627 724.673 115.153C727.333 123.679 711.611 136.282 710.815 145.554C710.02 154.825 721.218 160.244 725.195 167.44C727.992 172.486 727.681 178.042 724.736 180.839" stroke="white" stroke-width="0.5" stroke-linecap="round" stroke-linejoin="round"/>
<path d="M680.179 276.104C680.179 276.104 683.075 301.111 685.983 309.09C688.892 317.069 695.404 379.772 695.765 383.401C696.125 387.03 686.344 395.358 682.354 397.905C678.365 400.453 680.179 401.162 684.529 401.522C688.879 401.883 693.95 401.162 696.125 397.172C698.3 393.183 703.383 392.101 703.383 392.101L704.104 400.801H705.558L706.64 389.926C707.009 387.457 706.633 384.934 705.558 382.68C703.744 378.691 703.073 370.351 703.073 359.066C703.073 347.781 705.248 329.697 704.166 320.997C703.085 312.297 698.723 305.772 698.723 298.526C698.723 291.28 698.362 280.405 698.362 280.405L680.179 276.104Z" fill="white" stroke="#626C72" stroke-linecap="round" stroke-linejoin="round"/>
<path d="M706.64 389.926C706.929 388.056 706.771 386.144 706.18 384.346C703.931 388.149 697.48 393.307 692.509 395.357C689.813 396.525 686.875 397.019 683.945 396.799C683.361 397.234 682.814 397.607 682.355 397.905C678.365 400.391 680.18 401.162 684.53 401.522C688.88 401.883 693.951 401.162 696.126 397.172C698.301 393.183 703.384 392.101 703.384 392.101L704.105 400.801H705.559L706.64 389.926Z" fill="#626C72" stroke="#626C72" stroke-linecap="round" stroke-linejoin="round"/>
<path d="M701.209 280.094C701.209 280.094 707.423 298.575 713.165 314.521C718.907 330.467 732.74 367.082 734.194 373.607C735.649 380.132 736.369 392.101 740.409 398.266C744.448 404.43 748.388 407.326 747.667 396.451C746.946 385.576 740.409 377.597 738.967 369.257C737.525 360.918 736.792 330.84 731.721 317.43C726.65 304.019 721.206 293.144 720.535 289.154C720.04 285.184 719.799 281.187 719.814 277.186L701.209 280.094Z" fill="white" stroke="#626C72" stroke-linecap="round" stroke-linejoin="round"/>
<path d="M746.922 391.791C746.868 393.841 746.23 395.833 745.082 397.533C742.994 399.869 739.626 395.333 737.874 392.561C738.447 394.56 739.283 396.474 740.36 398.253C744.349 404.406 748.339 407.314 747.618 396.439C747.498 394.875 747.265 393.321 746.922 391.791V391.791Z" fill="#626C72" stroke="#626C72" stroke-linecap="round" stroke-linejoin="round"/>
<path d="M704.068 134.206C704.068 134.206 706.243 136.021 707.697 148.35C709.151 160.679 700.078 199.096 700.078 199.096C700.078 199.096 715.664 224.625 719.293 237.315C722.922 250.004 725.097 297.544 725.097 297.544C725.097 297.544 717.478 300.452 701.893 301.533C686.307 302.615 677.967 298.638 677.967 298.638C677.967 298.638 677.247 230.789 677.247 220.337C677.247 209.884 676.513 186.108 675.432 183.212C674.351 180.317 671.082 172.698 671.082 169.802C671.082 166.906 692.882 136.021 692.882 136.021L704.068 134.206Z" fill="white" stroke="#626C72" stroke-linecap="round" stroke-linejoin="round"/>
<path d="M719.33 237.315C716.471 227.372 704.639 200.923 700.413 196.375C693.988 198.512 682.267 200.625 677.035 199.059C677.196 202.788 677.283 216.708 677.283 220.275C677.283 230.79 678.004 298.576 678.004 298.576C678.004 298.576 686.344 302.565 701.929 301.471C717.515 300.378 725.134 297.482 725.134 297.482C725.134 297.482 722.959 250.004 719.33 237.315Z" fill="#626C72" stroke="#626C72" stroke-linecap="round" stroke-linejoin="round"/>
<path d="M696.026 91.4764C696.026 91.4764 692.136 83 684.443 83C676.749 83 673.331 89.8358 675.034 95.814C676.737 101.792 669.913 100.089 669.056 103.942C668.198 107.795 674.612 110.343 678.029 110.343C681.447 110.343 696.026 91.4764 696.026 91.4764Z" fill="#626C72" stroke="#626C72" stroke-linecap="round" stroke-linejoin="round"/>
<path d="M684.791 90.6063C682.504 89.3634 679.819 88.4686 678.576 90.4074C676.177 94.136 683.635 97.0692 681.236 101.071C678.837 105.073 672.971 104.004 673.244 105.334C673.518 106.664 677.234 107.46 677.234 107.46" stroke="white" stroke-width="0.5" stroke-linecap="round" stroke-linejoin="round"/>
<path d="M688.706 93.3158C688.706 93.3158 687.973 92.682 686.879 91.9114" stroke="white" stroke-width="0.5" stroke-linecap="round" stroke-linejoin="round"/>
<path d="M676.302 111.201C676.846 110.796 677.274 110.256 677.544 109.635C678.166 105.049 679.508 100.537 682.044 98.0015C685.879 94.3908 690.771 92.104 696.001 91.4764C697.55 91.2481 699.131 91.393 700.612 91.899C707.212 94.2107 712.879 98.7721 711.661 109.771C710.319 121.889 700.886 124.922 700.886 124.922L700.214 132.379L690.793 136.754L690.458 128.675C690.458 128.675 684.07 131.36 681.758 131.024C679.446 130.689 678.725 127.656 677.718 123.281C677.349 121.285 677.166 119.259 677.172 117.229L674.35 114.42C672.747 112.792 674.325 112.394 676.302 111.201Z" fill="white" stroke="#626C72" stroke-linecap="round" stroke-linejoin="round"/>
<path d="M711.687 109.771C712.93 98.7721 707.237 94.2107 700.638 91.899C699.156 91.393 697.575 91.2481 696.027 91.4764C692.461 91.9531 689.028 93.1453 685.935 94.9813C687.824 94.596 684.605 100.152 687.563 103.681C690.153 106.958 693.455 109.602 697.22 111.412C697.22 111.412 700.576 108.715 701.595 112.419C702.614 116.122 702.266 118.807 699.569 119.491C696.872 120.174 695.84 119.491 695.84 119.491C695.84 119.491 697.63 123.729 700.812 125.481V124.872C700.812 124.872 710.282 121.902 711.687 109.771Z" fill="#626C72" stroke="#626C72" stroke-linecap="round" stroke-linejoin="round"/>
<path d="M685.984 134.567L687.786 144.36L707.001 134.206L705.187 125.146L685.984 134.567Z" fill="white" stroke="#626C72" stroke-linecap="round" stroke-linejoin="round"/>
<path d="M695.267 217.143C693.277 217.568 691.258 217.843 689.227 217.963C687.648 217.864 685.498 216.086 683.907 216.844C682.316 217.603 680.092 222.388 680.092 222.388C680.092 222.388 677.979 223.456 678.588 224.587C679.197 225.718 681.807 226.762 681.807 226.762C681.807 226.762 684.293 229.112 685.734 229.348C687.176 229.584 695.963 223.133 695.963 223.133L695.267 217.143Z" fill="white" stroke="#626C72" stroke-linecap="round" stroke-linejoin="round"/>
<path d="M694.336 221.791C694.046 221.442 693.837 221.031 693.725 220.591C693.613 220.15 693.602 219.69 693.691 219.244C693.78 218.798 693.968 218.378 694.241 218.014C694.514 217.651 694.865 217.353 695.269 217.143L719.418 194.522L693.118 153.632C691.945 151.47 691.66 148.936 692.324 146.567C692.988 144.199 694.549 142.182 696.675 140.945C698.801 139.708 701.326 139.348 703.713 139.942C706.101 140.535 708.163 142.035 709.462 144.124L732.256 189.427C733.442 190.577 734.127 192.147 734.164 193.798C734.201 195.449 733.587 197.049 732.455 198.251L732.368 198.338C730.081 201.868 704.926 220.324 697.568 222.736C696.996 222.917 696.384 222.923 695.808 222.755C695.233 222.587 694.72 222.251 694.336 221.791V221.791Z" fill="white" stroke="#626C72" stroke-linecap="round" stroke-linejoin="round"/>
<path d="M89.8621 115.121C92.3963 121.335 89.5995 130.519 86.1863 132.795C85.1256 133.48 89.5018 138.342 92.8006 141.522L95.832 145.604L97.6999 151.369L99.4357 150.874C99.4357 150.874 97.166 144.733 97.7698 141.859C98.3736 138.985 98.8468 137.534 98.8468 137.534C99.9605 134.677 101.909 132.221 104.438 130.487C104.272 124.936 88.7855 112.556 89.8621 115.121Z" fill="white"/>
<g style="mix-blend-mode:multiply" opacity="0.5">
<path d="M100.964 133.679L92.5736 136.439L89.8211 138.113L85.8174 135.04L92.6732 126.631L100.964 133.679Z" fill="#4DD3CD"/>
</g>
<path d="M89.8621 115.121C92.3963 121.335 89.5995 130.519 86.1863 132.795C85.1256 133.48 89.5018 138.342 92.8006 141.522L95.832 145.604L97.6999 151.369L99.4357 150.874C99.4357 150.874 97.166 144.733 97.7698 141.859C98.3736 138.985 98.8468 137.534 98.8468 137.534C99.9605 134.677 101.909 132.221 104.438 130.487C104.272 124.936 88.7855 112.556 89.8621 115.121Z" stroke="#485257" stroke-width="0.826956" stroke-linecap="round" stroke-linejoin="round"/>
<path d="M107.247 93.1673C111.686 94.7946 116.665 97.7811 117.252 102.874C118.271 111.721 115.068 115.714 115.326 117.951C115.584 120.188 118.894 122.803 117.912 124.056C116.929 125.309 114.281 125.217 114.281 125.217C112.886 128.652 111.259 131.989 109.412 135.203C107.475 138.065 102.963 134.806 98.1176 131.984C93.272 129.161 90.6914 126.436 89.9636 120.117C89.2357 113.798 85.5783 109.507 87.6133 103.048C88.2214 101.089 89.2182 99.2722 90.5441 97.7066C91.87 96.1411 93.4979 94.8588 95.3305 93.9365C97.1631 93.0142 99.1628 92.4707 101.21 92.3386C103.258 92.2064 105.311 92.4883 107.247 93.1673V93.1673Z" fill="white"/>
<g style="mix-blend-mode:multiply" opacity="0.5">
<path d="M107.247 93.1673C105.311 92.4883 103.258 92.2064 101.21 92.3386C99.1629 92.4707 97.1631 93.0142 95.3305 93.9365C93.4979 94.8588 91.87 96.1411 90.5441 97.7066C89.2182 99.2722 88.2214 101.089 87.6133 103.048C85.5783 109.507 89.2371 113.81 89.9636 120.117C90.69 126.424 93.2705 129.149 98.1176 131.984L100.964 133.679C96.8928 131.689 97.149 123.797 96.8666 121.345C96.5842 118.893 100.608 117.802 103.863 116.044C106.345 114.696 113.915 110.366 117.349 108.383C117.5 106.527 117.465 104.66 117.245 102.811C116.665 97.7811 111.686 94.7946 107.247 93.1673Z" fill="#4DD3CD"/>
</g>
<path d="M107.247 93.1673C111.686 94.7946 116.665 97.7811 117.252 102.874C118.271 111.721 115.068 115.714 115.326 117.951C115.584 120.188 118.894 122.803 117.912 124.056C116.929 125.309 114.281 125.217 114.281 125.217C112.886 128.652 111.259 131.989 109.412 135.203C107.475 138.065 102.963 134.806 98.1176 131.984C93.272 129.161 90.6914 126.436 89.9636 120.117C89.2357 113.798 85.5783 109.507 87.6133 103.048C88.2214 101.089 89.2182 99.2722 90.5441 97.7066C91.87 96.1411 93.4979 94.8588 95.3305 93.9365C97.1631 93.0142 99.1628 92.4707 101.21 92.3386C103.258 92.2064 105.311 92.4883 107.247 93.1673V93.1673Z" stroke="#485257" stroke-width="0.826956" stroke-linecap="round" stroke-linejoin="round"/>
<path d="M110.126 129.282C110.126 129.282 107.405 129.006 106.641 127.596Z" fill="white"/>
<path d="M110.126 129.282C110.126 129.282 107.405 129.006 106.641 127.596" stroke="#485257" stroke-width="0.826956" stroke-linecap="round" stroke-linejoin="round"/>
<path d="M112.641 117.325L111.927 118.906C111.455 119.042 110.957 119.061 110.477 118.96C109.996 118.859 109.548 118.642 109.171 118.327" fill="white"/>
<path d="M112.641 117.325L111.927 118.906C111.455 119.042 110.957 119.061 110.477 118.96C109.996 118.859 109.548 118.642 109.171 118.327" stroke="#485257" stroke-width="0.826956" stroke-linecap="round" stroke-linejoin="round"/>
<path d="M108.493 115.114C108.493 115.114 111.143 112.107 113.049 113.091Z" fill="white"/>
<path d="M108.493 115.114C108.493 115.114 111.143 112.107 113.049 113.091" stroke="#485257" stroke-width="0.826956" stroke-linecap="round" stroke-linejoin="round"/>
<path d="M130.451 110.843C127.526 101.012 116.881 91.763 116.881 91.763C114.629 89.821 111.913 88.493 108.997 87.9074C101.006 86.1258 90.3433 87.0594 82.5912 95.1365C74.8391 103.214 74.9641 117.862 72.955 125.88C70.9459 133.897 69.6913 139.126 70.591 141.711C71.4907 144.297 79.2341 138.923 80.7589 139.042C82.2837 139.161 81.3009 141.079 83.955 140.774C86.609 140.468 89.6159 135.332 91.0946 135.162C92.5733 134.992 97.246 134.978 98.1657 132.068C99.0855 129.158 91.2306 120.778 93.118 116.373C93.118 116.373 94.6651 116.797 104.663 112.648C109.165 110.911 113.469 108.698 117.502 106.047C117.594 112.849 115.153 116.114 115.379 118.073C115.635 120.298 118.947 122.925 117.964 124.178C116.982 125.431 114.333 125.339 114.333 125.339C112.938 128.775 111.312 132.111 109.464 135.325C107.909 137.605 104.713 135.988 101.016 133.801C100.075 134.929 99.3556 136.224 98.8947 137.619C98.8947 137.619 98.6452 138.454 98.2638 140.035C99.2358 141.213 100.587 142.017 102.086 142.309C105.402 142.529 107.006 140.552 108.345 139.501C109.684 138.45 112.848 139.572 115.738 138.65C118.629 137.728 117.727 135.129 118.732 133.515C119.737 131.901 122.253 135.504 124.344 132.869C126.435 130.233 133.37 120.624 130.451 110.843Z" fill="#485257"/>
<path d="M115.92 93.2056C117.669 95.1556 123.335 99.1002 121.78 101.495C120.654 103.031 119.244 104.337 117.626 105.341" stroke="white" stroke-width="0.620217" stroke-linecap="round" stroke-linejoin="round"/>
<path d="M115.101 99.434C115.101 99.434 103.97 109.309 97.7162 110.939C91.4625 112.568 83.6408 111.036 83.6408 111.036" stroke="white" stroke-width="0.620217" stroke-linecap="round" stroke-linejoin="round"/>
<path d="M110.497 91.3712C108.14 95.9553 104.844 99.9915 100.823 103.217C97.2154 106.151 92.8669 108.03 88.2581 108.647" stroke="white" stroke-width="0.620217" stroke-linecap="round" stroke-linejoin="round"/>
<path d="M95.6371 117.786C95.6371 117.786 92.7477 110.935 90.7896 112.057C88.8314 113.179 88.9372 116.765 90.1625 119.62C91.3878 122.476 93.4129 121.935 94.499 120.914" fill="white"/>
<path d="M95.6371 117.786C95.6371 117.786 92.7477 110.935 90.7896 112.057C88.8314 113.179 88.9372 116.765 90.1625 119.62C91.3878 122.476 93.4129 121.935 94.499 120.914" stroke="#485257" stroke-width="0.826956" stroke-linecap="round" stroke-linejoin="round"/>
<g style="mix-blend-mode:multiply">
<path d="M95.6371 117.786C95.6371 117.786 92.7477 110.935 90.7896 112.057C88.8314 113.179 88.9372 116.765 90.1625 119.62C91.3878 122.476 93.4129 121.935 94.499 120.914" fill="white"/>
</g>
<g style="mix-blend-mode:multiply" opacity="0.44">
<g style="mix-blend-mode:multiply" opacity="0.44">
<path d="M95.7108 117.777C95.7108 117.777 92.8341 110.925 90.8633 112.048C88.8925 113.171 89.0109 116.756 90.2363 119.612C91.4616 122.467 93.4993 121.925 94.5728 120.905" fill="#4DD3CD"/>
</g>
</g>
<path d="M95.8757 153.711L99.6271 190.019L116.679 238.377L110.845 241.646L90.8211 197.38L80.8216 159.378C80.8216 159.378 79.9812 147.948 84.1589 146.254C88.3365 144.559 94.2071 146.361 95.8757 153.711Z" fill="white" stroke="#626C72" stroke-linecap="round" stroke-linejoin="round"/>
<path d="M115.96 238.965C115.96 238.965 119.635 246.628 120.053 248.641C120.47 250.654 120.888 254.762 119.277 256.598C117.332 258.811 115.554 257.105 115.554 257.105C115.554 257.105 110.649 255.927 110.649 251.866C110.649 247.805 110.244 242.191 110.244 242.191L115.96 238.965Z" fill="white" stroke="#626C72" stroke-linecap="round" stroke-linejoin="round"/>
<path d="M112.389 251.298L118.823 252.371" stroke="#626C72" stroke-linecap="round" stroke-linejoin="round"/>
<path d="M113.819 246.175L115.816 249.335C115.816 249.335 111.165 257.332 113.661 255.238C116.157 253.144 120.82 250.596 120.406 248.502C119.701 246.304 118.771 244.187 117.63 242.182" fill="white"/>
<path d="M113.819 246.175L115.816 249.335C115.816 249.335 111.165 257.332 113.661 255.238C116.157 253.144 120.82 250.596 120.406 248.502C119.701 246.304 118.771 244.187 117.63 242.182" stroke="#626C72" stroke-linecap="round" stroke-linejoin="round"/>
<path d="M64.666 186.953C65.3505 187.356 66.0805 187.535 66.8109 187.479" stroke="white" stroke-width="0.5" stroke-linecap="round" stroke-linejoin="round"/>
<path d="M105.381 277.573C105.381 277.573 102.582 301.719 99.7723 309.424C96.9622 317.129 90.6694 377.675 90.3211 381.179C89.9728 384.684 99.4241 392.725 103.279 395.185C107.134 397.645 105.381 398.329 101.177 398.677C96.9742 399.025 92.0745 398.329 89.9728 394.477C87.8712 390.624 82.9595 389.58 82.9595 389.58L82.263 397.981H80.8579L79.8131 387.48C79.456 385.096 79.8198 382.659 80.8579 380.483C82.6112 376.631 83.2597 368.578 83.2597 357.681C83.2597 346.784 81.1581 329.322 82.2029 320.921C83.2477 312.52 87.4629 306.22 87.4629 299.223C87.4629 292.226 87.8112 281.725 87.8112 281.725L105.381 277.573Z" fill="white" stroke="#626C72" stroke-linecap="round" stroke-linejoin="round"/>
<path d="M79.8154 387.509C79.5365 385.707 79.6888 383.865 80.2597 382.134C82.4332 385.797 88.6654 390.765 93.4686 392.74C96.073 393.864 98.9122 394.341 101.742 394.129C102.307 394.548 102.835 394.907 103.279 395.194C107.134 397.588 105.381 398.33 101.178 398.677C96.975 399.025 92.0757 398.33 89.9743 394.488C87.8729 390.645 82.9616 389.604 82.9616 389.604L82.2651 397.983H80.8601L79.8154 387.509Z" fill="#626C72" stroke="#626C72" stroke-linecap="round" stroke-linejoin="round"/>
<path d="M85.0418 281.454C85.0418 281.454 79.0281 299.306 73.4714 314.708C67.9147 330.111 54.5281 365.478 53.1209 371.781C51.7137 378.084 51.0161 389.645 47.1071 395.599C43.1982 401.554 39.3855 404.351 40.0831 393.847C40.7807 383.342 47.1071 375.635 48.5023 367.579C49.8975 359.524 50.6071 330.471 55.5143 317.518C60.4216 304.564 65.6896 294.06 66.3391 290.206C66.8187 286.371 67.0517 282.509 67.0367 278.645L85.0418 281.454Z" fill="white" stroke="#626C72" stroke-linecap="round" stroke-linejoin="round"/>
<path d="M40.7669 389.104C40.8195 391.129 41.4462 393.096 42.5732 394.774C44.6235 397.081 47.931 392.602 49.6518 389.865C49.0888 391.839 48.268 393.729 47.2109 395.486C43.2932 401.56 39.3756 404.432 40.0834 393.694C40.2012 392.15 40.4296 390.616 40.7669 389.104V389.104Z" fill="#626C72" stroke="#626C72" stroke-linecap="round" stroke-linejoin="round"/>
<path d="M82.2341 140.839C82.2341 140.839 80.1397 142.593 78.7395 154.511C77.3392 166.43 86.0758 203.568 86.0758 203.568C86.0758 203.568 71.068 228.246 67.5734 240.514C64.0788 252.781 61.9844 298.738 61.9844 298.738C61.9844 298.738 69.3207 301.549 84.3285 302.594C99.3362 303.64 107.367 299.795 107.367 299.795C107.367 299.795 108.061 234.206 108.061 224.101C108.061 213.997 108.767 191.012 109.808 188.213C110.849 185.414 113.997 178.048 113.997 175.249C113.997 172.45 93.0052 142.593 93.0052 142.593L82.2341 140.839Z" fill="white" stroke="#626C72" stroke-linecap="round" stroke-linejoin="round"/>
<path d="M67.5491 240.182C70.2897 230.51 81.6336 204.783 85.6849 200.358C91.8454 202.437 103.082 204.493 108.099 202.969C107.944 206.596 107.86 220.137 107.86 223.607C107.86 233.835 107.169 299.773 107.169 299.773C107.169 299.773 99.1736 303.654 84.2312 302.59C69.2888 301.526 61.9844 298.709 61.9844 298.709C61.9844 298.709 64.0696 252.526 67.5491 240.182Z" fill="#4DD3CD" stroke="#626C72" stroke-linecap="round" stroke-linejoin="round"/>
<path d="M99.5201 141.198L97.7729 150.49L79.144 140.856L80.9033 132.259L99.5201 141.198Z" fill="white" stroke="#626C72" stroke-linecap="round" stroke-linejoin="round"/>
<path d="M90.5507 220.67C92.5033 221.083 94.4848 221.35 96.4781 221.467C98.0271 221.37 100.137 219.644 101.698 220.38C103.259 221.117 105.443 225.764 105.443 225.764C105.443 225.764 107.516 226.802 106.918 227.901C106.321 229 103.759 230.014 103.759 230.014C103.759 230.014 101.32 232.295 99.9053 232.525C98.4906 232.754 89.8677 226.489 89.8677 226.489L90.5507 220.67Z" fill="white" stroke="#626C72" stroke-linecap="round" stroke-linejoin="round"/>
<path d="M91.8751 225.583C92.1561 225.245 92.3579 224.849 92.4658 224.423C92.5737 223.997 92.5849 223.552 92.4985 223.121C92.4122 222.69 92.2305 222.284 91.9668 221.933C91.7031 221.581 91.3642 221.293 90.9748 221.09L67.6503 199.226L93.0515 159.703C94.1849 157.614 94.4601 155.164 93.8187 152.875C93.1774 150.585 91.6699 148.636 89.6162 147.44C87.5625 146.245 85.1241 145.897 82.8183 146.471C80.5126 147.044 78.5209 148.495 77.2658 150.513L55.2498 194.301C54.105 195.413 53.4432 196.93 53.4073 198.526C53.3714 200.122 53.9642 201.668 55.0577 202.83L55.1417 202.914C57.3505 206.326 81.6474 224.165 88.754 226.496C89.306 226.671 89.8976 226.678 90.4534 226.515C91.0093 226.353 91.5042 226.028 91.8751 225.583V225.583Z" fill="white" stroke="#626C72" stroke-linecap="round" stroke-linejoin="round"/>
<path d="M589.179 130.811L606.95 180.623C606.95 180.623 604.608 191.895 597.555 191.429C590.502 190.963 588.625 181.089 586.749 179.678C584.872 178.268 582.051 167.461 582.051 167.461L589.179 130.811Z" fill="white" stroke="#626C72" stroke-linecap="round" stroke-linejoin="round"/>
<path d="M543.209 120.824L514.318 131.252L525.401 211.366H577.529L589.179 130.811L557.995 121.051L543.209 120.824Z" fill="white" stroke="#626C72" stroke-linecap="round" stroke-linejoin="round"/>
<path d="M551.761 131.958L544.317 137.537L539.418 122.99L542.831 115.622L558.058 115.257L561.773 118.595L561.03 137.159L551.761 131.958Z" fill="white" stroke="#626C72" stroke-linecap="round" stroke-linejoin="round"/>
<path d="M559.632 111.844L558.474 121.202L550.136 131.957L543.902 121.051V103.506C543.902 103.506 554.821 106.239 559.632 111.844Z" fill="white" stroke="#626C72" stroke-linecap="round" stroke-linejoin="round"/>
<path d="M539.62 92.3981C539.62 83.8968 545.817 77.0076 553.474 77.0076C561.132 77.0076 565.376 84.2746 565.376 92.7759C565.376 95.5215 564.809 100.232 564.583 102.738C564.192 107.02 562.895 108.834 560.363 112.675C552.064 125.27 545.25 106.794 541.761 100.585C540.349 98.0878 539.611 95.2665 539.62 92.3981V92.3981Z" fill="white" stroke="#626C72" stroke-linecap="round" stroke-linejoin="round"/>
<path d="M559.494 95.0681L560.666 103.846L556.547 103.733" fill="white"/>
<path d="M559.494 95.0681L560.666 103.846L556.547 103.733" stroke="#626C72" stroke-linecap="round" stroke-linejoin="round"/>
<path d="M568.688 93.5442L548.89 93.6323C548.646 94.4023 548.609 95.2226 548.781 96.0114C548.954 96.8003 549.33 97.5302 549.872 98.1286C551.131 99.388 556.257 98.9472 557.076 98.6198C557.895 98.2923 558.335 94.6903 558.335 94.6903H559.809C559.809 94.6903 559.973 98.4687 562.089 98.7835C564.204 99.0984 566.963 98.9976 567.492 98.6198C569.834 97.0455 568.688 93.5442 568.688 93.5442Z" fill="white" stroke="#626C72" stroke-linecap="round" stroke-linejoin="round"/>
<path d="M542.063 102.008C542.063 102.008 546.522 111.139 547.58 114.3C548.638 117.461 553.877 119.93 559.179 118.166C564.482 116.403 563.046 108.557 563.046 108.557C563.046 108.557 557.416 103.746 556.371 104.778C555.325 105.811 549.683 110.408 549.33 109.35C548.978 108.292 546.522 101.97 546.522 101.97L545.376 97.4863L547.731 95.9749C548.071 95.6917 548.292 95.2911 548.35 94.8525C548.409 94.4139 548.3 93.9693 548.046 93.6072L546.937 92.0077C546.801 91.8118 546.705 91.5905 546.655 91.3569C546.605 91.1232 546.603 90.882 546.648 90.6474C546.937 89.2746 547.731 86.4283 549.57 85.6096C552.089 84.5643 555.149 86.0882 557.97 86.7935C560.791 87.4988 563.852 84.9547 563.852 84.9547L565.111 89.1361C567.904 86.5155 569.888 83.1504 570.829 79.4383C572.24 73.4559 557.819 71 553.197 71C548.575 71 541.245 73.5189 539.129 80.1436C537.013 86.7683 540.817 100.824 542.063 102.008Z" fill="#626C72" stroke="#626C72" stroke-linecap="round" stroke-linejoin="round"/>
<path d="M553.474 79.4761C553.474 79.4761 556.093 83.4056 552.655 84.2242C549.217 85.0429 542.516 82.0957 539.569 83.2418" stroke="white" stroke-width="0.5" stroke-linecap="round" stroke-linejoin="round"/>
<path d="M547.579 88.141C547.579 88.141 542.189 87.4861 540.023 89.7783" stroke="white" stroke-width="0.5" stroke-linecap="round" stroke-linejoin="round"/>
<path d="M560.552 108.003C560.552 108.003 556.585 110.068 554.62 107.612" stroke="white" stroke-width="0.5" stroke-linecap="round" stroke-linejoin="round"/>
<path d="M542.731 99.2243C542.731 99.2243 538.839 94.9422 538.839 99.6147C538.839 104.287 540.011 104.287 542.341 105.912C544.671 107.537 545.464 105.522 545.464 105.522" fill="white"/>
<path d="M542.731 99.2243C542.731 99.2243 538.839 94.9422 538.839 99.6147C538.839 104.287 540.011 104.287 542.341 105.912C544.671 107.537 545.464 105.522 545.464 105.522" stroke="#626C72" stroke-linecap="round" stroke-linejoin="round"/>
<path d="M594.696 389.541H594.872L594.532 387.828L577.53 211.379H525.401L508.26 389.528H508.449L519.507 390.473C519.507 390.473 531.774 349.288 531.774 346.215C531.774 343.142 535.275 314.729 535.275 314.729L552.668 253.583L568.046 314.729C568.046 314.729 571.547 343.205 571.547 346.215C571.547 349.226 583.827 390.498 583.827 390.498L594.23 389.604H594.696V389.541Z" fill="#626C72" stroke="#626C72" stroke-linecap="round" stroke-linejoin="round"/>
<path d="M573.638 221.756L562.038 238.318" stroke="white" stroke-width="0.5" stroke-linecap="round" stroke-linejoin="round"/>
<path d="M567.429 225.484L560.388 237.084" stroke="white" stroke-width="0.5" stroke-linecap="round" stroke-linejoin="round"/>
<path d="M534.304 224.666L544.645 235.837" stroke="white" stroke-width="0.5" stroke-linecap="round" stroke-linejoin="round"/>
<path d="M533.474 228.797L548.373 243.709" stroke="white" stroke-width="0.5" stroke-linecap="round" stroke-linejoin="round"/>
<path d="M528.499 213.066H574.469" stroke="white" stroke-width="0.5" stroke-linecap="round" stroke-linejoin="round"/>
<path d="M508.448 389.528C508.448 389.528 501.811 394.755 497.982 396.191C494.154 397.626 487 401.442 487 401.442C487 401.442 487 403.835 493.209 403.835H517.579L517.164 389.528H508.448Z" fill="#626C72" stroke="#626C72" stroke-linecap="round" stroke-linejoin="round"/>
<path d="M517.491 401.228C507.76 401.673 498.01 401.517 488.297 400.762L487.038 401.442C487.038 401.442 487.038 403.835 493.247 403.835H517.617L517.491 401.228Z" fill="white" stroke="#626C72" stroke-linecap="round" stroke-linejoin="round"/>
<path d="M593.688 389.528C593.688 389.528 600.337 394.755 604.154 396.191C607.97 397.626 615.149 401.442 615.149 401.442C615.149 401.442 615.149 403.835 608.927 403.835H584.569L585.01 389.528H593.688Z" fill="#626C72" stroke="#626C72" stroke-linecap="round" stroke-linejoin="round"/>
<path d="M584.645 401.228C594.376 401.673 604.126 401.517 613.839 400.762L615.098 401.442C615.098 401.442 615.098 403.835 608.877 403.835H584.569L584.645 401.228Z" fill="white" stroke="#626C72" stroke-linecap="round" stroke-linejoin="round"/>
<path d="M514.318 131.252L495.124 182.499H513.537L520.414 168.519L514.318 131.252Z" fill="white" stroke="#626C72" stroke-linecap="round" stroke-linejoin="round"/>
<path d="M598.285 174.565C590.602 171.391 565.955 169.817 564.67 169.817C563.385 169.817 523.322 166.517 520.035 166.038C516.748 165.56 512.982 173.091 512.982 173.091L530.363 172.613L551.509 176.844C551.509 176.844 594.33 192.348 597.554 191.416C597.994 191.27 598.391 191.019 598.713 190.686" fill="white"/>
<path d="M598.285 174.565C590.602 171.391 565.955 169.817 564.67 169.817C563.385 169.817 523.322 166.517 520.035 166.038C516.748 165.56 512.982 173.091 512.982 173.091L530.363 172.613L551.509 176.844C551.509 176.844 594.33 192.348 597.554 191.416C597.994 191.27 598.391 191.019 598.713 190.686" stroke="#626C72" stroke-linecap="round" stroke-linejoin="round"/>
<path d="M508.75 172.159L574.997 165.585L575.476 171.215L518.146 188.608C518.146 188.608 507.818 190.95 499.821 189.54C491.823 188.129 495.602 180.144 497.478 175.446" fill="white"/>
<path d="M508.75 172.159L574.997 165.585L575.476 171.215L518.146 188.608C518.146 188.608 507.818 190.95 499.821 189.54C491.823 188.129 495.602 180.144 497.478 175.446" stroke="#626C72" stroke-linecap="round" stroke-linejoin="round"/>
<path d="M575.011 165.585L587.693 165.106L591.447 172.625L575.477 171.227L575.011 165.585Z" fill="white" stroke="#626C72" stroke-linecap="round" stroke-linejoin="round"/>
<path d="M228.243 159.072C228.243 159.072 231.404 168.858 231.404 170.76C231.381 172.133 231.276 173.504 231.089 174.866L233.873 179.185C234.036 179.463 234.086 179.793 234.014 180.107C233.941 180.421 233.751 180.695 233.482 180.873L229.188 183.392C229.188 183.392 228.558 193.468 227.928 194.727C227.299 195.987 216.593 195.684 216.593 195.684L213.117 202.309L195.107 195.369L199.842 182.41L198.86 162.85C198.86 162.85 209.918 153.077 228.243 159.072Z" fill="white" stroke="#626C72" stroke-linecap="round" stroke-linejoin="round"/>
<path d="M215.914 182.876C215.914 182.876 212.778 185.823 210.422 186.024C208.067 186.226 200.41 184.45 199.818 183.669C199.226 182.888 193.936 171.893 194.125 166.591C194.314 161.289 194.528 153.442 200.208 150.898C205.888 148.354 214.931 149.122 219.642 146.188C224.352 143.253 231.808 140.886 235.737 145.986C239.667 151.087 236.72 158.153 233.584 161.1C230.448 164.047 226.518 164.878 226.909 166.138C227.299 167.397 229.654 168.883 228.281 170.848C226.909 172.813 221.984 174.626 221.984 175.357C221.984 176.087 223.168 178.896 221.795 179.286C220.422 179.677 219.037 176.541 217.664 176.541C216.291 176.541 213.369 180.332 215.914 182.876Z" fill="#626C72" stroke="#626C72" stroke-linecap="round" stroke-linejoin="round"/>
<path d="M207.715 173.871C207.149 174.503 206.666 175.206 206.279 175.961" stroke="white" stroke-width="0.5" stroke-linecap="round" stroke-linejoin="round"/>
<path d="M233.508 153.53C233.259 155.692 232.471 157.756 231.217 159.534C229.963 161.312 228.282 162.747 226.329 163.707C221.291 166.314 214.579 168.442 210.12 171.717" stroke="white" stroke-width="0.5" stroke-linecap="round" stroke-linejoin="round"/>
<path d="M226.909 166.2C226.909 166.2 222.438 169.979 217.652 173.87C214.386 176.398 210.755 178.416 206.883 179.853" stroke="white" stroke-width="0.5" stroke-linecap="round" stroke-linejoin="round"/>
<path d="M215.599 183.405L218.118 184.034C217.965 185.212 218.055 186.408 218.382 187.55C218.709 188.691 219.266 189.753 220.019 190.672" fill="white"/>
<path d="M215.599 183.405L218.118 184.034C217.965 185.212 218.055 186.408 218.382 187.55C218.709 188.691 219.266 189.753 220.019 190.672" stroke="#626C72" stroke-linecap="round" stroke-linejoin="round"/>
<path d="M218.521 176.641L236.304 172.233" stroke="#626C72" stroke-linecap="round" stroke-linejoin="round"/>
<path d="M231.732 171.881L235.788 172.057C235.788 172.057 237.186 176.641 232.967 177.17" stroke="#626C72" stroke-linecap="round" stroke-linejoin="round"/>
<path d="M213.798 389.627C213.798 389.627 230.171 399.967 233.055 399.967C235.939 399.967 237.375 402.562 235.939 402.851C234.503 403.141 225.586 403.418 219.566 403.708C213.546 403.998 209.49 403.418 206.052 403.418C202.614 403.418 198.571 403.708 196.846 402.851C195.12 401.995 198.004 392.209 198.004 390.484C198.004 388.758 211.783 388.468 213.798 389.627Z" fill="#626C72" stroke="#626C72" stroke-linecap="round" stroke-linejoin="round"/>
<path d="M234.906 400.395C228.545 402.486 218.23 401.113 212.034 400.547C207.135 400.106 199.439 400.005 196.303 399.98C196.177 401.453 196.303 402.574 196.795 402.851C198.52 403.708 202.55 403.418 206.001 403.418C209.452 403.418 213.47 403.997 219.515 403.708C225.56 403.418 234.465 403.128 235.888 402.851C237.009 402.625 236.48 401.138 234.906 400.395Z" fill="white" stroke="#626C72" stroke-linecap="round" stroke-linejoin="round"/>
<path d="M226.732 318.594L213.81 383.393L216.505 390.119C214.571 392.919 211.653 394.889 208.332 395.635C204.638 396.361 200.886 396.749 197.123 396.794C197.123 396.794 195.687 389.602 196.556 388.733C197.425 387.864 197.702 384.426 197.702 384.426L205.17 319.161L226.732 318.594Z" fill="#4DD3CD" stroke="#626C72" stroke-linecap="round" stroke-linejoin="round"/>
<path d="M266.115 387.436C266.115 387.436 276.19 395.773 280.787 397.209C285.384 398.645 290.271 400.081 290.271 401.516C290.271 402.952 279.352 404.388 271.014 403.531C262.677 402.675 250.019 398.934 247.148 398.934C244.276 398.934 244.843 391.453 244.843 390.307C244.843 389.161 258.936 379.954 266.115 387.436Z" fill="#626C72" stroke="#626C72" stroke-linecap="round" stroke-linejoin="round"/>
<path d="M290.322 401.517C290.322 401 289.68 400.484 288.659 399.967C280.43 401.068 272.087 401.009 263.873 399.791C255.599 398.607 248.672 397.02 245.133 396.139C245.435 397.688 246.027 398.935 247.198 398.935C250.07 398.935 262.727 402.713 271.065 403.532C279.403 404.35 290.322 402.952 290.322 401.517Z" fill="white" stroke="#626C72" stroke-linecap="round" stroke-linejoin="round"/>
<path d="M216.103 289.551C224.724 288.891 233.389 289.085 241.972 290.13C256.632 291.856 289.39 293.909 289.957 297.612C290.524 301.314 264.541 379.136 264.541 381.138C264.541 383.141 266.833 385.169 267.413 386.315C267.778 387.132 267.975 388.014 267.992 388.909C267.992 388.909 260.952 396.466 255.486 398.519C250.02 400.572 245.41 398.645 244.277 398.645C243.143 398.645 243.131 390.887 244 387.146C244.869 383.405 246.292 373.922 246.581 373.065C246.871 372.209 262.614 316.869 262.614 316.869C262.614 316.869 219.793 323.77 194.213 320.886C168.634 318.002 166.039 313.997 164.604 307.952C163.168 301.906 166.039 289.841 166.039 289.841L216.103 289.551Z" fill="#4DD3CD" stroke="#626C72" stroke-linecap="round" stroke-linejoin="round"/>
<path d="M212.866 308.178C212.285 309.019 211.636 309.811 210.926 310.546" stroke="#626C72" stroke-linecap="round" stroke-linejoin="round"/>
<path d="M220.7 292.712C219.047 296.852 217.142 300.885 214.995 304.791" stroke="#626C72" stroke-linecap="round" stroke-linejoin="round"/>
<path d="M217.274 295.597C213.805 301.319 208.553 305.744 202.324 308.191" stroke="#626C72" stroke-linecap="round" stroke-linejoin="round"/>
<path d="M282.539 311.466C283.521 311.088 284.466 310.697 285.36 310.294Z" fill="white"/>
<path d="M282.539 311.466C283.521 311.088 284.466 310.697 285.36 310.294" stroke="#626C72" stroke-linecap="round" stroke-linejoin="round"/>
<path d="M262.614 316.869C268.146 315.8 273.613 314.417 278.987 312.725Z" fill="white"/>
<path d="M262.614 316.869C268.146 315.8 273.613 314.417 278.987 312.725" stroke="#626C72" stroke-linecap="round" stroke-linejoin="round"/>
<path d="M295.851 221.39C296.455 218.984 297.463 219.173 296.657 218.38C295.549 217.271 294.654 218.581 291.443 220.382C288.231 222.183 285.032 224.387 285.032 224.387C285.103 223.719 285.38 223.089 285.826 222.586C286.638 221.258 287.073 219.734 287.085 218.178C287.085 216.919 286.078 217.17 285.675 218.38C285.272 219.589 281.669 221.78 281.468 222.788C281.266 223.795 280.549 227.75 280.549 227.75C279.402 229.475 279.402 237.523 279.402 237.523L256.065 255.055L244.276 268.909C244.276 268.909 249.453 277.246 252.324 276.1C255.196 274.954 256.632 273.795 263.533 268.04C269.377 263.166 284.025 240.684 284.025 240.684C286.576 239.082 288.99 237.271 291.241 235.269C293.839 232.33 295.373 228.605 295.599 224.689C295.545 223.583 295.63 222.475 295.851 221.39V221.39Z" fill="white" stroke="#626C72" stroke-linecap="round" stroke-linejoin="round"/>
<path d="M187.866 194.79C187.866 194.79 190.083 186.478 199.503 188.14C208.924 189.803 216.128 197.561 217.791 200.332C219.453 203.102 187.312 199.223 187.312 199.223L187.866 194.79Z" fill="white" stroke="#626C72" stroke-linecap="round" stroke-linejoin="round"/>
<path d="M242.174 267.385C242.174 267.385 239.982 269.753 242.174 273.481C243.672 276.062 246.317 278.04 251.38 277.171C256.116 276.34 263.232 264.576 263.232 256.302C263.232 248.027 257.136 247.486 254.919 249.098C252.703 250.71 242.174 267.385 242.174 267.385Z" fill="white" stroke="#626C72" stroke-linecap="round" stroke-linejoin="round"/>
<path d="M191.946 193.82C191.946 193.82 169.528 204.463 166.367 206.415C163.206 208.367 161.19 233.43 161.19 237.75C161.19 242.07 164.352 284.35 165.208 291.503C166.065 298.657 193.672 303.581 202.878 300.987C212.085 298.392 221.052 291.856 221.052 289.551C221.052 287.246 220.183 267.712 220.762 263.972C221.342 260.231 226.506 244.425 226.506 244.425L242.198 269.463C242.198 269.463 243.848 272.536 249.679 270.118C258.017 266.667 258.71 253.329 258.71 253.329C258.71 253.329 249.516 237.234 246.921 229.186C244.327 221.138 243.143 215.092 242.035 213.657C240.926 212.221 215.007 200.143 210.41 196.981C207.807 195.021 204.773 193.711 201.561 193.161C198.35 192.611 195.053 192.837 191.946 193.82Z" fill="white" stroke="#626C72" stroke-linecap="round" stroke-linejoin="round"/>
<path d="M226.443 244.425L218.974 233.493" stroke="#626C72" stroke-linecap="round" stroke-linejoin="round"/>
<path d="M225.233 242.863L212.072 236.377" stroke="#626C72" stroke-linecap="round" stroke-linejoin="round"/>
<path d="M186.229 325.32L197.715 406.957C197.741 407.147 197.807 407.328 197.907 407.491C198.008 407.653 198.141 407.792 198.299 407.9C198.457 408.008 198.635 408.082 198.823 408.117C199.011 408.152 199.204 408.147 199.39 408.103C199.713 408.024 199.996 407.832 200.19 407.562C200.384 407.291 200.475 406.961 200.448 406.63L192.349 323.972L186.229 325.32Z" fill="#626C72" stroke="#626C72" stroke-linecap="round" stroke-linejoin="round"/>
<path d="M153.231 325.962L134.037 406.139C133.993 406.325 133.988 406.518 134.023 406.705C134.058 406.893 134.132 407.072 134.24 407.229C134.348 407.387 134.487 407.52 134.65 407.621C134.812 407.722 134.994 407.787 135.183 407.814V407.814C135.511 407.863 135.846 407.79 136.125 407.609C136.403 407.428 136.606 407.151 136.694 406.831L158.986 329.022L153.231 325.962Z" fill="#626C72" stroke="#626C72" stroke-linecap="round" stroke-linejoin="round"/>
<path d="M188.092 324.967L175.875 406.491C175.847 406.679 175.858 406.871 175.907 407.054C175.956 407.238 176.042 407.41 176.16 407.558C176.278 407.707 176.426 407.83 176.593 407.92C176.761 408.009 176.945 408.063 177.135 408.078V408.078C177.466 408.096 177.792 407.994 178.054 407.79C178.315 407.587 178.494 407.295 178.558 406.97L194.062 327.524L188.092 324.967Z" fill="#626C72" stroke="#626C72" stroke-linecap="round" stroke-linejoin="round"/>
<path d="M231.342 325.32L242.828 406.957C242.854 407.147 242.92 407.328 243.021 407.491C243.121 407.653 243.255 407.792 243.412 407.9C243.57 408.008 243.748 408.082 243.936 408.117C244.124 408.152 244.317 408.147 244.503 408.103C244.826 408.024 245.11 407.832 245.303 407.562C245.497 407.292 245.589 406.961 245.561 406.63L237.425 323.947L231.342 325.32Z" fill="#626C72" stroke="#626C72" stroke-linecap="round" stroke-linejoin="round"/>
<path d="M135.057 240.596L149.037 331.491H248.458C248.458 331.491 249.931 305.294 245.549 296.037C241.166 286.78 187.047 306.629 185.095 306.113C183.646 305.748 185.788 258.821 188.445 240.483C188.631 239.192 188.537 237.876 188.17 236.625C187.803 235.374 187.171 234.216 186.316 233.23C185.462 232.245 184.406 231.454 183.22 230.913C182.033 230.372 180.744 230.092 179.44 230.093H144.049C142.735 230.091 141.436 230.375 140.242 230.924C139.048 231.473 137.987 232.274 137.132 233.272C136.278 234.27 135.65 235.442 135.291 236.707C134.933 237.971 134.853 239.298 135.057 240.596V240.596Z" fill="#4DD3CD" stroke="#626C72" stroke-linecap="round" stroke-linejoin="round"/>
<path d="M245.549 296.037C241.166 286.78 187.047 306.629 185.095 306.113C183.647 305.748 185.788 258.821 188.445 240.483C188.677 239.209 188.626 237.899 188.294 236.646C187.963 235.394 187.36 234.23 186.527 233.238C185.695 232.245 184.654 231.448 183.479 230.903C182.303 230.359 181.022 230.08 179.727 230.086C178.431 230.093 177.153 230.385 175.984 230.941C174.814 231.498 173.781 232.306 172.959 233.307C172.137 234.308 171.545 235.478 171.227 236.733C170.908 237.989 170.87 239.299 171.115 240.571L185.095 331.466H248.458C248.458 331.466 249.931 305.294 245.549 296.037Z" fill="#626C72" stroke="#626C72" stroke-linecap="round" stroke-linejoin="round"/>
<path d="M295.851 221.39C295.851 221.39 294.252 222.989 291.846 225.798Z" fill="white"/>
<path d="M295.851 221.39C295.851 221.39 294.252 222.989 291.846 225.798" stroke="#626C72" stroke-linecap="round" stroke-linejoin="round"/>
<path d="M295.599 224.639C295.599 224.639 293.647 228.606 292.45 230.407Z" fill="white"/>
<path d="M295.599 224.639C295.599 224.639 293.647 228.606 292.45 230.407" stroke="#626C72" stroke-linecap="round" stroke-linejoin="round"/>
<path d="M4.43447 266.441C6.52516 267.348 11.6259 267.235 11.6385 267.235C11.6511 267.235 10.5428 263.897 10.4421 263.696C9.32114 261.341 5.76949 257.474 2.88535 257.865C2.4079 257.942 1.95225 258.12 1.54816 258.386C1.14408 258.652 0.800648 259 0.540325 259.408C0.280003 259.816 0.108644 260.274 0.0374461 260.752C-0.033752 261.231 -0.00318757 261.719 0.127145 262.185C0.605736 264.174 2.64605 265.661 4.43447 266.441Z" fill="#FFC397"/>
<path d="M71.3754 249.048C68.4787 248.734 65.0782 252.701 63.9824 255.081C63.8943 255.283 62.8363 258.658 62.8867 258.658C62.3325 259.275 61.7532 259.918 61.1361 260.698C60.0026 262.084 58.7431 263.671 57.4711 265.484C56.101 267.428 54.8396 269.446 53.6927 271.53C52.4 273.866 51.3128 276.31 50.4433 278.834C50.4488 278.864 50.4488 278.894 50.4433 278.923C50.4433 278.079 50.4433 275.686 50.4433 275.51C50.1033 272.928 47.9244 268.142 45.0781 267.613C44.6039 267.536 44.1189 267.56 43.6544 267.682C43.1899 267.805 42.7562 268.023 42.3813 268.323C42.0063 268.623 41.6984 268.999 41.4774 269.425C41.2564 269.852 41.1272 270.32 41.0982 270.799C40.9219 272.852 42.3576 274.905 43.8564 276.19C45.4937 277.651 50.0277 279.061 50.3929 279.175C49.5694 281.793 48.9297 284.465 48.4786 287.172C48.1889 288.734 47.9622 290.308 47.7481 291.895C47.7481 291.152 47.7481 290.497 47.7481 290.409C47.4206 287.827 45.2292 283.041 42.3954 282.512C41.9175 282.437 41.4292 282.464 40.9623 282.59C40.4953 282.716 40.06 282.939 39.6847 283.244C39.3095 283.549 39.0026 283.93 38.7839 284.362C38.5653 284.793 38.4398 285.266 38.4156 285.749C38.2518 287.802 39.675 289.855 41.1864 291.152C42.6977 292.449 46.4886 293.746 47.4836 294.061C47.408 294.678 47.3199 295.321 47.2443 295.887C46.9043 298.809 46.5642 301.731 46.1486 304.578C45.9975 305.585 45.8211 306.568 45.6448 307.55C45.6448 306.895 45.6448 306.353 45.6448 306.291C45.3048 303.709 43.1259 298.923 40.2795 298.394C39.8016 298.321 39.3136 298.349 38.8473 298.477C38.381 298.605 37.9468 298.829 37.5727 299.136C37.1987 299.442 36.8932 299.823 36.6761 300.255C36.4589 300.687 36.335 301.16 36.3123 301.643C36.1485 303.683 37.5717 305.736 39.0831 307.034C40.9636 308.277 43.0237 309.224 45.1914 309.842C44.9773 310.85 44.7632 311.845 44.5113 312.814C44.3224 313.469 44.1964 314.074 43.9697 314.754C43.743 315.434 43.5541 316.014 43.3526 316.668C42.9118 317.865 42.471 319.112 42.0176 320.27C41.7027 321.089 41.3879 321.857 41.0856 322.626C41.2367 321.631 41.5012 319.666 41.5138 319.502C41.4783 317.214 40.8583 314.972 39.7128 312.991C39.744 312.74 39.744 312.486 39.7128 312.235C39.6557 311.75 39.496 311.283 39.2444 310.865C38.9928 310.447 38.655 310.087 38.2535 309.809C37.8519 309.532 37.3959 309.343 36.9157 309.255C36.4355 309.167 35.9422 309.183 35.4684 309.301C32.6473 310.044 30.8714 314.981 30.7329 317.575C30.7329 317.726 30.8337 319.401 30.9092 320.459C30.7707 319.842 30.6321 319.2 30.481 318.621C30.1913 317.361 29.8513 316.102 29.5112 314.842C29.3097 314.2 29.1208 313.583 28.9193 312.915C28.7178 312.248 28.4659 311.656 28.2392 310.951C27.685 309.427 27.0553 307.915 26.3752 306.404C27.4583 306.139 31.3123 305.144 32.8614 303.973C34.4105 302.802 36.0352 300.85 36.0226 298.797C36.0376 298.308 35.948 297.821 35.7599 297.37C35.5718 296.918 35.2896 296.512 34.9319 296.178C34.5743 295.844 34.1495 295.591 33.6861 295.434C33.2226 295.278 32.731 295.222 32.2442 295.27C29.3475 295.585 26.8286 300.195 26.3122 302.739C26.3122 302.903 26.0981 304.767 26.0226 305.799C25.6195 304.893 25.2039 303.986 24.7631 303.079C23.5036 300.484 22.0679 297.877 20.6951 295.283L19.4356 292.89C19.8261 292.802 24.4734 291.744 26.1611 290.371C27.8488 288.998 29.3349 287.26 29.3223 285.195C29.3352 284.706 29.2443 284.221 29.0555 283.77C28.8667 283.319 28.5844 282.914 28.2272 282.581C27.8701 282.247 27.4462 281.994 26.9836 281.836C26.521 281.679 26.0303 281.622 25.544 281.668C22.6472 281.983 20.1409 286.593 19.6119 289.137C19.6119 289.338 19.3223 292.021 19.2971 292.714C18.3903 290.963 17.4961 289.2 16.69 287.437C15.5834 285.053 14.6327 282.6 13.8437 280.094C14.02 280.094 18.8815 278.96 20.6195 277.575C22.156 276.391 23.7933 274.452 23.7681 272.399C23.7831 271.91 23.6936 271.423 23.5055 270.972C23.3174 270.52 23.0351 270.114 22.6775 269.78C22.3198 269.446 21.8951 269.192 21.4316 269.036C20.9681 268.879 20.4766 268.824 19.9898 268.872C17.093 269.187 14.5867 273.797 14.0578 276.341C14.0578 276.542 13.7555 279.439 13.7429 279.968C13.7429 279.817 13.6421 279.678 13.5918 279.527C12.876 276.993 12.3829 274.401 12.1182 271.782C11.9671 270.333 11.8915 268.948 11.8411 267.588C12.7605 267.474 16.8789 266.92 18.6799 265.875C20.481 264.829 22.1812 263.117 22.4583 261.076C22.5238 260.597 22.4879 260.109 22.3529 259.645C22.2178 259.18 21.9866 258.75 21.6742 258.38C21.3619 258.011 20.9754 257.711 20.5399 257.501C20.1043 257.291 19.6294 257.174 19.1459 257.159C16.224 257.159 13.2265 261.467 12.4205 263.935C12.4205 264.074 12.093 265.484 11.8915 266.517C11.8915 265.913 11.8915 265.258 11.8915 264.691C11.8915 262.487 12.03 260.472 12.1686 258.696C12.2567 257.676 12.3575 256.756 12.4583 255.9C13.3021 255.321 16.6648 252.953 17.6976 251.252C18.7303 249.552 19.5364 247.197 18.7807 245.283C18.6185 244.828 18.3623 244.413 18.0289 244.064C17.6955 243.714 17.2923 243.44 16.8456 243.257C16.3989 243.074 15.9187 242.987 15.4362 243.002C14.9537 243.017 14.4797 243.133 14.0452 243.343C11.4507 244.678 10.7706 249.88 11.1988 252.449C11.1988 252.663 12.219 256.064 12.2567 256.038C12.1434 256.857 12.03 257.739 11.9293 258.708C11.753 260.497 11.5766 262.487 11.5137 264.729C11.4378 267.106 11.4966 269.486 11.69 271.857C11.8755 274.517 12.297 277.156 12.9494 279.741C12.9549 279.77 12.9549 279.8 12.9494 279.829C12.496 279.112 11.1484 277.147 11.0225 277.008C9.32222 275.044 4.87636 272.235 2.20632 273.381C1.76609 273.581 1.37289 273.871 1.05239 274.233C0.731898 274.595 0.491304 275.02 0.346311 275.481C0.201319 275.942 0.155185 276.429 0.210923 276.909C0.266661 277.389 0.423018 277.852 0.669789 278.268C1.66476 280.069 4.03253 280.963 5.95949 281.24C8.12574 281.555 12.685 280.232 13.0502 280.132C13.7993 282.742 14.7207 285.3 15.8084 287.789C16.4381 289.238 17.0679 290.686 17.8109 292.122C17.3953 291.505 17.0175 290.963 16.9671 290.862C15.2668 288.897 10.821 286.089 8.15094 287.235C7.71813 287.456 7.33696 287.765 7.03254 288.144C6.72812 288.522 6.50736 288.961 6.38479 289.431C6.26223 289.901 6.24065 290.392 6.32147 290.871C6.40229 291.35 6.58369 291.806 6.8537 292.21C7.83607 294.011 10.2164 294.905 12.1308 295.182C14.0452 295.459 17.9872 294.426 19.02 294.124C19.2971 294.678 19.5616 295.233 19.8386 295.774C21.0981 298.406 22.4961 301.026 23.7178 303.633C24.146 304.552 24.5364 305.472 24.9772 306.391L24.2341 305.333C22.5339 303.369 18.088 300.573 15.418 301.706C14.9784 301.908 14.5863 302.201 14.267 302.564C13.9477 302.928 13.7085 303.354 13.5648 303.816C13.4211 304.278 13.3761 304.765 13.4329 305.246C13.4896 305.726 13.6467 306.19 13.894 306.605C14.889 308.406 17.2568 309.301 19.1711 309.578C21.4471 309.587 23.711 309.247 25.884 308.57C26.2618 309.527 26.6397 310.484 26.9545 311.416C27.1687 312.071 27.4079 312.676 27.5717 313.343C27.7354 314.011 27.9369 314.603 28.1132 315.283C28.4155 316.542 28.7304 317.802 28.9949 319.061C29.1838 319.905 29.3475 320.724 29.5112 321.58C29.083 320.661 28.2518 318.872 28.1384 318.734C26.753 316.53 22.7858 313.092 19.9646 313.809C19.5003 313.943 19.0694 314.174 18.6997 314.485C18.33 314.796 18.0298 315.181 17.8185 315.616C17.6071 316.05 17.4894 316.524 17.4729 317.007C17.4564 317.49 17.5416 317.971 17.7228 318.419C18.4281 320.346 20.6321 321.593 22.4835 322.197C24.5364 322.815 29.0578 322.197 29.6246 322.197C29.9017 323.545 30.141 324.867 30.3677 326.114C31.1233 330.434 31.6271 334.074 31.8916 336.606C31.8916 337.059 31.9924 337.462 32.0301 337.865H23.214L26.413 400.296H41.3501L44.5491 337.865H36.3752L36.5642 337.5C37.6851 335.157 39.2342 331.807 40.9093 327.701C41.4508 326.442 41.9924 325.019 42.534 323.583C43.0881 323.696 47.5718 324.603 49.6499 324.124C51.5516 323.696 53.8438 322.626 54.6877 320.762C54.903 320.328 55.0245 319.854 55.0441 319.371C55.0638 318.887 54.9811 318.405 54.8016 317.956C54.6221 317.507 54.3498 317.1 54.0024 316.763C53.6551 316.426 53.2405 316.167 52.7859 316.001C50.0277 315.069 45.8211 318.205 44.272 320.296C44.1838 320.422 43.34 321.87 42.8236 322.815L43.4912 321.051C43.932 319.855 44.335 318.633 44.7506 317.336L45.3174 315.409C45.5315 314.767 45.67 314.074 45.8463 313.394C46.2116 311.82 46.5138 310.207 46.7909 308.57C47.8363 308.948 51.602 310.258 53.5416 310.119C55.4811 309.981 57.9119 309.275 59.0328 307.6C59.3169 307.203 59.5134 306.749 59.6091 306.27C59.7049 305.791 59.6977 305.297 59.5882 304.82C59.4786 304.344 59.2692 303.897 58.9737 303.507C58.6782 303.118 58.3034 302.796 57.8741 302.563C55.3552 301.303 50.6448 303.696 48.806 305.522C48.6927 305.648 47.5466 307.109 46.8917 307.928C47.0428 306.945 47.1939 305.963 47.3199 304.955C47.6851 302.071 47.9496 299.137 48.2393 296.215C48.3274 295.321 48.4282 294.426 48.5164 293.532C48.8942 293.671 53.3275 295.321 55.5063 295.17C57.4333 295.031 59.864 294.326 60.9849 292.651C61.2691 292.253 61.4655 291.8 61.5613 291.32C61.657 290.841 61.6499 290.347 61.5403 289.871C61.4308 289.394 61.2213 288.947 60.9258 288.558C60.6303 288.168 60.2555 287.846 59.8262 287.613C57.3073 286.29 52.6096 288.746 50.7582 290.573C50.6196 290.711 48.932 292.827 48.529 293.381C48.7431 291.416 48.9698 289.464 49.272 287.537C49.6598 284.942 50.2194 282.376 50.9471 279.855C51.1234 279.855 55.733 281.656 57.9748 281.505C59.9018 281.366 62.3326 280.648 63.4535 278.986C63.7396 278.589 63.9377 278.135 64.0346 277.656C64.1315 277.176 64.1248 276.681 64.0152 276.204C63.9055 275.727 63.6953 275.279 63.3986 274.89C63.1019 274.501 62.7256 274.18 62.2948 273.948C59.7759 272.613 55.0781 275.069 53.2267 276.908C53.0882 277.046 51.2746 279.326 50.9723 279.754L51.0856 279.313C51.8853 276.802 52.9052 274.366 54.1335 272.033C54.801 270.774 55.5063 269.515 56.2116 268.381C57.0429 268.797 60.8464 270.648 62.8615 270.724C64.8766 270.799 67.2948 270.358 68.6046 268.771C68.9159 268.41 69.1484 267.987 69.2874 267.53C69.4264 267.074 69.4688 266.593 69.412 266.119C69.3551 265.646 69.2002 265.189 68.9571 264.778C68.7141 264.367 68.3881 264.012 68.0001 263.734C65.5693 262.122 60.6953 264.049 58.6675 265.673C58.5542 265.761 57.5214 266.782 56.791 267.537C57.1184 267.021 57.4459 266.479 57.7733 266.001C59.0328 264.162 60.2167 262.562 61.325 261.139C61.9547 260.346 62.5844 259.64 63.1008 258.986C64.121 258.986 68.2394 258.834 70.0404 257.991C71.8414 257.147 73.8187 255.623 74.2344 253.62C74.4085 253.132 74.4699 252.61 74.4139 252.094C74.3579 251.579 74.1859 251.082 73.9109 250.643C73.6359 250.203 73.265 249.831 72.8259 249.555C72.3868 249.279 71.8909 249.106 71.3754 249.048V249.048ZM39.3224 326.82C37.5717 330.85 35.9596 334.137 34.8135 336.417L34.1712 337.676H33.9823C33.9823 337.235 33.8563 336.744 33.7808 336.202C33.4281 333.684 32.874 329.981 32.0049 325.636C31.7405 324.263 31.4256 322.802 31.0855 321.303C32.4468 320.754 33.7755 320.127 35.0654 319.427C36.8175 320.947 38.7714 322.219 40.8715 323.205C40.3551 324.427 39.8261 325.661 39.3224 326.82Z" fill="#FFC397"/>
<path d="M56.1222 267.562C56.1222 267.562 57.0542 264.174 57.0794 263.948C57.4446 261.366 56.626 256.19 53.9937 254.917C53.5563 254.722 53.083 254.619 52.6038 254.617C52.1247 254.614 51.6502 254.711 51.2107 254.902C50.7711 255.093 50.3761 255.373 50.0508 255.725C49.7255 256.076 49.477 256.492 49.3211 256.945C48.6158 258.872 49.5101 261.24 50.5806 262.877C51.84 264.842 56.1222 267.562 56.1222 267.562Z" fill="#FFC397"/>
<path d="M304.302 121H256.799C254.149 121 252 123.149 252 125.799V145.018C252 147.668 254.149 149.817 256.799 149.817H304.302C306.952 149.817 309.101 147.668 309.101 145.018V125.799C309.101 123.149 306.952 121 304.302 121Z" fill="#4DD3CD"/>
<path d="M252 142.281V157.756L260.638 147.826" fill="#4DD3CD"/>
<path d="M271.907 135.942C271.91 135.355 271.738 134.78 271.413 134.291C271.089 133.802 270.626 133.421 270.084 133.195C269.542 132.97 268.946 132.91 268.37 133.024C267.794 133.138 267.266 133.42 266.851 133.835C266.436 134.25 266.153 134.779 266.039 135.355C265.925 135.931 265.985 136.527 266.211 137.069C266.436 137.611 266.818 138.073 267.307 138.398C267.796 138.722 268.37 138.894 268.957 138.892C269.739 138.889 270.487 138.577 271.04 138.024C271.592 137.472 271.904 136.723 271.907 135.942V135.942Z" fill="white"/>
<path d="M284.586 135.942C284.588 135.355 284.416 134.78 284.091 134.291C283.767 133.802 283.304 133.421 282.762 133.195C282.221 132.97 281.624 132.91 281.048 133.024C280.473 133.138 279.944 133.42 279.529 133.835C279.114 134.25 278.831 134.779 278.717 135.355C278.604 135.931 278.663 136.527 278.889 137.069C279.115 137.611 279.496 138.073 279.985 138.398C280.474 138.722 281.048 138.894 281.635 138.892C282.417 138.889 283.165 138.577 283.718 138.024C284.271 137.472 284.583 136.723 284.586 135.942V135.942Z" fill="white"/>
<path d="M297.264 135.942C297.267 135.355 297.095 134.781 296.771 134.293C296.447 133.804 295.985 133.422 295.444 133.196C294.903 132.97 294.307 132.91 293.731 133.023C293.156 133.136 292.627 133.417 292.212 133.831C291.796 134.245 291.513 134.773 291.398 135.348C291.282 135.922 291.34 136.519 291.564 137.061C291.788 137.603 292.168 138.066 292.655 138.392C293.143 138.718 293.716 138.892 294.302 138.892C295.086 138.892 295.837 138.582 296.393 138.029C296.948 137.476 297.261 136.725 297.264 135.942V135.942Z" fill="white"/>
<path d="M366.339 203.169C366.612 202.872 366.808 202.523 366.913 202.148C367.017 201.773 367.028 201.382 366.944 201.002C366.86 200.623 366.684 200.266 366.428 199.956C366.172 199.647 365.843 199.394 365.465 199.215L346 179.356L362.001 153.105C363.101 151.266 362.624 151.159 362.001 149.144C360.545 139.176 362.001 147.384 360.545 139.176C360.545 134.622 360.738 128.588 358.5 129.093C361 128.093 358.5 131.093 358.5 129.093L330.79 175.637C329.679 176.615 329.036 177.951 329.001 179.356C328.967 180.76 329.542 182.121 330.603 183.144L330.685 183.218C332.829 186.22 356.412 201.922 363.31 203.973C363.846 204.127 364.42 204.133 364.959 203.989C365.499 203.846 365.979 203.561 366.339 203.169Z" fill="white"/>
<path d="M358.5 129.093C360.738 128.588 360.545 134.622 360.545 139.176C362.001 147.384 360.545 139.176 362.001 149.144C362.624 151.159 363.101 151.266 362.001 153.105L346 179.356L365.465 199.215C365.843 199.394 366.172 199.647 366.428 199.956C366.684 200.266 366.86 200.623 366.944 201.002C367.028 201.382 367.017 201.773 366.913 202.148C366.808 202.523 366.612 202.872 366.339 203.169C365.979 203.561 365.499 203.846 364.959 203.989C364.42 204.133 363.846 204.127 363.31 203.973C356.412 201.922 332.829 186.22 330.685 183.218L330.603 183.144C329.542 182.121 328.967 180.76 329.001 179.356C329.036 177.951 329.679 176.615 330.79 175.637L358.5 129.093ZM358.5 129.093C358.5 131.093 361 128.093 358.5 129.093Z" stroke="#626C72" stroke-linecap="round" stroke-linejoin="round"/>
<path d="M433.464 128.548L451 178.593C451 178.593 448.553 188.059 441.5 187.593C434.447 187.127 432.91 178.825 431.033 177.414C429.157 176.004 426.335 165.198 426.335 165.198L433.464 128.548Z" fill="white" stroke="#626C72" stroke-linecap="round" stroke-linejoin="round"/>
<path d="M387.494 118.56L358.602 128.989L369.685 209.102H421.814L433.464 128.548L402.28 118.787L387.494 118.56Z" fill="#4DD3CD" stroke="#626C72" stroke-linecap="round" stroke-linejoin="round"/>
<path d="M392.414 129.694L399.858 135.273L404.757 120.727L401.344 113.359L386.117 112.994L382.402 116.331L383.145 134.896L392.414 129.694Z" fill="white" stroke="#626C72" stroke-linecap="round" stroke-linejoin="round"/>
<path d="M384.542 109.58L385.701 118.938L394.038 129.694L400.272 118.787V101.243C400.272 101.243 389.353 103.976 384.542 109.58Z" fill="white" stroke="#626C72" stroke-linecap="round" stroke-linejoin="round"/>
<path d="M404.554 90.1344C404.554 81.6331 398.358 74.7439 390.7 74.7439C383.043 74.7439 378.798 82.0109 378.798 90.5122C378.798 93.2578 379.365 97.9682 379.592 100.475C379.982 104.757 381.279 106.57 383.811 110.412C392.111 123.006 398.924 104.53 402.413 98.3208C403.825 95.8241 404.563 93.0028 404.554 90.1344V90.1344Z" fill="white" stroke="#626C72" stroke-linecap="round" stroke-linejoin="round"/>
<path d="M384.679 92.8046V100.804L387.626 101.47" fill="white"/>
<path d="M384.679 92.8046V100.804L387.626 101.47" stroke="#626C72" stroke-linecap="round" stroke-linejoin="round"/>
<path d="M398.237 97.4863L397.09 101.97L401.549 102.008C402.796 100.824 406.599 86.7683 404.483 80.1436C402.368 73.5189 395.038 71 390.415 71C385.793 71 374.668 76.659 376.555 79.6771C378.501 81.9406 375.709 86.5155 378.501 89.1361L379.76 84.9547C379.76 84.9547 382.821 87.4988 385.642 86.7935C388.463 86.0882 391.524 84.5643 394.043 85.6096C395.881 86.4283 396.675 89.2746 396.965 90.6474C397.01 90.882 397.007 91.1232 396.957 91.3569C396.908 91.5905 396.812 91.8118 396.675 92.0077L395.567 93.6072C395.312 93.9693 395.204 94.4139 395.262 94.8525C395.32 95.2911 395.541 95.6917 395.881 95.9749L398.237 97.4863Z" fill="#626C72" stroke="#626C72" stroke-linecap="round" stroke-linejoin="round"/>
<path d="M390.701 77.2125C390.701 77.2125 388.081 81.142 391.519 81.9607C394.958 82.7793 401.658 79.8322 404.605 80.9783" stroke="white" stroke-width="0.5" stroke-linecap="round" stroke-linejoin="round"/>
<path d="M396.594 85.8775C396.594 85.8775 401.985 85.2226 404.151 87.5148" stroke="white" stroke-width="0.5" stroke-linecap="round" stroke-linejoin="round"/>
<path d="M383.622 105.739C383.622 105.739 387.589 107.805 389.554 105.349" stroke="white" stroke-width="0.5" stroke-linecap="round" stroke-linejoin="round"/>
<path d="M401.443 96.9608C401.443 96.9608 405.334 92.6786 405.334 97.3512C405.334 102.024 404.163 102.024 401.833 103.648C399.503 105.273 398.71 103.258 398.71 103.258" fill="white"/>
<path d="M401.443 96.9608C401.443 96.9608 405.334 92.6786 405.334 97.3512C405.334 102.024 404.163 102.024 401.833 103.648C399.503 105.273 398.71 103.258 398.71 103.258" stroke="#626C72" stroke-linecap="round" stroke-linejoin="round"/>
<path d="M438.981 387.277H439.157L438.817 385.564L421.814 209.115H369.686L352.544 387.264H352.733L363.791 388.209C363.791 388.209 376.058 347.025 376.058 343.952C376.058 340.879 379.56 312.465 379.56 312.465L396.953 251.319L412.331 312.465C412.331 312.465 415.832 340.942 415.832 343.952C415.832 346.962 428.112 388.234 428.112 388.234L438.515 387.34H438.981V387.277Z" fill="#626C72" stroke="#626C72" stroke-linecap="round" stroke-linejoin="round"/>
<path d="M417.922 219.493L406.323 236.054" stroke="white" stroke-width="0.5" stroke-linecap="round" stroke-linejoin="round"/>
<path d="M411.713 223.221L404.672 234.82" stroke="white" stroke-width="0.5" stroke-linecap="round" stroke-linejoin="round"/>
<path d="M378.589 222.402L388.929 233.573" stroke="white" stroke-width="0.5" stroke-linecap="round" stroke-linejoin="round"/>
<path d="M377.758 226.533L392.658 241.445" stroke="white" stroke-width="0.5" stroke-linecap="round" stroke-linejoin="round"/>
<path d="M372.783 210.802H418.753" stroke="white" stroke-width="0.5" stroke-linecap="round" stroke-linejoin="round"/>
<path d="M352.733 387.264C352.733 387.264 346.095 392.491 342.267 393.927C338.438 395.363 331.284 399.179 331.284 399.179C331.284 399.179 331.284 401.572 337.493 401.572H361.864L361.448 387.264H352.733Z" fill="#626C72" stroke="#626C72" stroke-linecap="round" stroke-linejoin="round"/>
<path d="M361.775 398.965C352.044 399.409 342.294 399.254 332.581 398.499L331.322 399.179C331.322 399.179 331.322 401.572 337.531 401.572H361.901L361.775 398.965Z" fill="white" stroke="#626C72" stroke-linecap="round" stroke-linejoin="round"/>
<path d="M437.971 387.264C437.971 387.264 444.621 392.491 448.438 393.927C452.254 395.363 459.433 399.179 459.433 399.179C459.433 399.179 459.433 401.572 453.211 401.572H428.853L429.294 387.264H437.971Z" fill="#626C72" stroke="#626C72" stroke-linecap="round" stroke-linejoin="round"/>
<path d="M428.929 398.965C438.66 399.409 448.41 399.254 458.123 398.499L459.382 399.179C459.382 399.179 459.382 401.572 453.16 401.572H428.853L428.929 398.965Z" fill="white" stroke="#626C72" stroke-linecap="round" stroke-linejoin="round"/>
<path d="M379.998 188.869C377.652 187.94 377.215 188.88 377.033 187.747C376.768 186.179 378.378 186.221 381.759 184.65C385.14 183.078 388.847 181.756 388.847 181.756C388.252 181.418 387.568 181.273 386.889 181.341C385.312 181.221 383.795 180.675 382.5 179.762C381.457 179.016 382.259 178.337 383.497 178.723C384.734 179.108 388.668 177.448 389.621 177.879C390.573 178.311 394.269 180.066 394.269 180.066C396.372 180.147 403.032 184.918 403.032 184.918L431.278 176.135L449.683 174.662C449.683 174.662 453.537 183.858 450.898 185.538C448.259 187.218 446.455 187.711 437.629 189.97C430.156 191.882 402.928 190.59 402.928 190.59C400.1 191.737 397.18 192.646 394.198 193.309C390.238 193.702 386.251 192.754 382.878 190.618C381.994 189.918 381.027 189.33 379.998 188.869Z" fill="white" stroke="#626C72" stroke-linecap="round" stroke-linejoin="round"/>
<path d="M356 200.593C357.689 201.728 359.122 203.475 360.62 204.852C361.645 206.056 361.861 208.837 363.511 209.455C365.162 210.072 370.149 208.348 370.149 208.348C370.149 208.348 372.386 209.125 372.776 207.901C373.167 206.677 372.104 204.075 372.104 204.075C372.104 204.075 372.066 200.655 371.234 199.454C370.403 198.253 360 194.593 360 194.593L356 200.593Z" fill="white" stroke="#626C72" stroke-linecap="round" stroke-linejoin="round"/>
<path d="M449.008 174.68L438.992 175.506" stroke="white" stroke-width="2"/>
</svg>
